# xmcd
#
# Track frame offsets:
# 150
# 11602
# 24475
# 38250
# 47637
# 61875
# 74965
# 92895
# 102352
# 120455
# 138830
# 155175
# 171015
# 187287
# 196495
# 217300
# 235375
# 251555
# 270837
# 292592
#
# Disc length: 4054 seconds
#
#
# Revision: 1
# Processed by: cddbd v1.5.2PL0 Copyright (c) Steve Scherf et al.
# Submitted via: FreeRIP 2.95 
#
DISCID=230fd414
DTITLE=Willie Nelson - All The Songs I've Loved Before [CDTwo)
DYEAR=1900
DGENRE=
TTITLE0=Mona Lisa
TTITLE1=Turn Me Loose And Let Me Swing
TTITLE2=Once You're Past The Blues
TTITLE3=Please Don't Talk About Me When I'm Gone
TTITLE4=Faraway Places
TTITLE5=The Song From Moulin Rouge (Where Is Your Heart)
TTITLE6=Danny Boy
TTITLE7=Because Of You
TTITLE8=Tenderly
TTITLE9=To Each His Own
TTITLE10=Valentine
TTITLE11=Let It Be Me
TTITLE12=Over The Rainbow
TTITLE13=AC-CENT-TCHU-ATE The Positive
TTITLE14=Bridge Over Troubled Water (Studio Version)
TTITLE15=Help Me Make It Through The Night
TTITLE16=Spanish Eyes (Duet With Julio Iglesias)
TTITLE17=I Can See Clearly Now
TTITLE18=City Of New Orleans
TTITLE19=One For My Baby - One More For The Road
EXTD=
EXTT0=
EXTT1=
EXTT2=
EXTT3=
EXTT4=
EXTT5=
EXTT6=
EXTT7=
EXTT8=
EXTT9=
EXTT10=
EXTT11=
EXTT12=
EXTT13=
EXTT14=
EXTT15=
EXTT16=
EXTT17=
EXTT18=
EXTT19=
PLAYORDER=
